# xmcd
#
# Track frame offsets: 
#        150
#        19201
#        38043
#        53423
#        70580
#        86698
#        102418
#        120272
#        134821
#        153029
#        170495
#        187992
#        207049
#        227166
#
# Disc length: 3222 seconds
#
# Revision: 2
# Processed by: cddbd v1.5.2PL0 Copyright (c) Steve Scherf et al.
# Submitted via: ExactAudioCopyFreeDBPlugin 1.0
#
DISCID=ad0c940e
DTITLE=Chris Rea - The Return Of The Fabulous Hofner Bluenotes
DYEAR=2008
DGENRE=Blues
TTITLE0=Twister Inside
TTITLE1=Legacy Blues
TTITLE2=When The Truth Comes Out
TTITLE3=Blues For Janice
TTITLE4=Because It's You
TTITLE5=Don't Give Your Ace Away
TTITLE6=The Shadow Of A Fool
TTITLE7=Russian Roulette
TTITLE8=I Will Be With You
TTITLE9=I Can't Wait For Love
TTITLE10=Let's Getaway
TTITLE11=Yes I Do
TTITLE12=Meet Me On The Mountain
TTITLE13=BB Was A Commanche
EXTD=YEAR: 2008
EXTT0=
EXTT1=
EXTT2=
EXTT3=
EXTT4=
EXTT5=
EXTT6=
EXTT7=
EXTT8=
EXTT9=
EXTT10=
EXTT11=
EXTT12=
EXTT13=
PLAYORDER=
